<svg
    xmlns="http://www.w3.org/2000/svg"
    width="150"
    height="100"
    viewBox="0 0 150 100"
    fill="none"
>
    <!-- Book Cover -->
    <rect x="10" y="10" width="60" height="80" rx="5" fill="#F06292" />
    <rect x="80" y="10" width="60" height="80" rx="5" fill="#F48FB1" />

    <!-- Book Spine -->
    <rect x="70" y="10" width="10" height="80" fill="#EC407A" />

    <line x1="15" y1="25" x2="65" y2="25" stroke="#D81B60" stroke-width="2" />
    <line x1="15" y1="35" x2="65" y2="35" stroke="#D81B60" stroke-width="2" />
    <line x1="15" y1="45" x2="65" y2="45" stroke="#D81B60" stroke-width="2" />
    <line x1="15" y1="55" x2="65" y2="55" stroke="#D81B60" stroke-width="2" />
    <line x1="15" y1="65" x2="65" y2="65" stroke="#D81B60" stroke-width="2" />

    <line x1="85" y1="25" x2="135" y2="25" stroke="#D81B60" stroke-width="2" />
    <line x1="85" y1="35" x2="135" y2="35" stroke="#D81B60" stroke-width="2" />
    <line x1="85" y1="45" x2="135" y2="45" stroke="#D81B60" stroke-width="2" />
    <line x1="85" y1="55" x2="135" y2="55" stroke="#D81B60" stroke-width="2" />
    <line x1="85" y1="65" x2="135" y2="65" stroke="#D81B60" stroke-width="2" />

    <text
        x="75"
        y="30"
        font-family="Arial, sans-serif"
        font-size="30"
        font-weight="bold"
        fill="#CCCCCC"
        text-anchor="middle"
        alignment-baseline="central"
    >
        doc
    </text>

    <text
        x="75"
        y="65"
        font-family="Arial, sans-serif"
        font-size="40"
        font-weight="bold"
        fill="#FFFFFF"
        text-anchor="middle"
        alignment-baseline="central"
    >
        wiki
    </text>
</svg>

